<svg id="visual" viewBox="0 0 960 250" width="960" height="250" xmlns="http://www.w3.org/2000/svg" xmlns:xlink="http://www.w3.org/1999/xlink" version="1.1"><path d="M0 123L20 130.7C40 138.3 80 153.7 120 160C160 166.3 200 163.7 240 158C280 152.3 320 143.7 360 141.8C400 140 440 145 480 149.2C520 153.3 560 156.7 600 156.5C640 156.3 680 152.7 720 147C760 141.3 800 133.7 840 134.2C880 134.7 920 143.3 940 147.7L960 152L960 251L940 251C920 251 880 251 840 251C800 251 760 251 720 251C680 251 640 251 600 251C560 251 520 251 480 251C440 251 400 251 360 251C320 251 280 251 240 251C200 251 160 251 120 251C80 251 40 251 20 251L0 251Z" fill="#69c1fa"></path><path d="M0 180L20 175.5C40 171 80 162 120 159.5C160 157 200 161 240 167.2C280 173.3 320 181.7 360 186.5C400 191.3 440 192.7 480 189.8C520 187 560 180 600 176.7C640 173.3 680 173.7 720 176.8C760 180 800 186 840 181.7C880 177.3 920 162.7 940 155.3L960 148L960 251L940 251C920 251 880 251 840 251C800 251 760 251 720 251C680 251 640 251 600 251C560 251 520 251 480 251C440 251 400 251 360 251C320 251 280 251 240 251C200 251 160 251 120 251C80 251 40 251 20 251L0 251Z" fill="#1896f6"></path><path d="M0 205L20 201C40 197 80 189 120 185.8C160 182.7 200 184.3 240 188.3C280 192.3 320 198.7 360 196.7C400 194.7 440 184.3 480 179.3C520 174.3 560 174.7 600 180.3C640 186 680 197 720 198.3C760 199.7 800 191.3 840 188.7C880 186 920 189 940 190.5L960 192L960 251L940 251C920 251 880 251 840 251C800 251 760 251 720 251C680 251 640 251 600 251C560 251 520 251 480 251C440 251 400 251 360 251C320 251 280 251 240 251C200 251 160 251 120 251C80 251 40 251 20 251L0 251Z" fill="#0065e6"></path><path d="M0 213L20 213C40 213 80 213 120 215C160 217 200 221 240 219.2C280 217.3 320 209.7 360 211.2C400 212.7 440 223.3 480 224.7C520 226 560 218 600 214C640 210 680 210 720 210C760 210 800 210 840 210.2C880 210.3 920 210.7 940 210.8L960 211L960 251L940 251C920 251 880 251 840 251C800 251 760 251 720 251C680 251 640 251 600 251C560 251 520 251 480 251C440 251 400 251 360 251C320 251 280 251 240 251C200 251 160 251 120 251C80 251 40 251 20 251L0 251Z" fill="#3824c7"></path></svg>